<svg width="512" height="512" viewBox="0 0 512 512" fill="none" xmlns="http://www.w3.org/2000/svg">
  <rect width="512" height="512" rx="112" fill="#FFF8EF"/>
  <g transform="translate(96 72) scale(6.6666667)">
    <path d="M24 3.5l1.8 3.6h-3.6z" fill="#8B4A22"/>
    <rect x="23.2" y="6.5" width="1.6" height="3" fill="#8B4A22"/>
    <path d="M9 19 L24 8.5 L39 19 Z" fill="#8B4A22"/>
    <rect x="12" y="21" width="3" height="13" rx="1" fill="#8B4A22"/>
    <rect x="17.5" y="21" width="3" height="13" rx="1" fill="#8B4A22"/>
    <rect x="27.5" y="21" width="3" height="13" rx="1" fill="#8B4A22"/>
    <rect x="33" y="21" width="3" height="13" rx="1" fill="#8B4A22"/>
    <path d="M22 34v-7a2 2 0 0 1 4 0v7z" fill="#C99A2E"/>
    <rect x="8" y="35.5" width="32" height="3" rx="1" fill="#8B4A22"/>
    <rect x="10.5" y="40" width="27" height="3" rx="1" fill="#8B4A22" opacity="0.55"/>
  </g>
</svg>
